<svg xmlns="http://www.w3.org/2000/svg" width="188" height="108.32" viewBox="0 0 188 108.32">
  <g id="Group_29" data-name="Group 29" transform="translate(0)">
    <path id="Path_8" data-name="Path 8" d="M474.842,45.933l-8.153,20.531-6.368-17.377-36.6,7.617.01-10.124L398.074,57l-.655,5.177-2.791.663-.312,9.873L397,72.14s-.211,11.018-.3,12c-.05.559.078,4.059.179,4.88a14.13,14.13,0,0,0,1.726,5.594,15.888,15.888,0,0,0,8.629,6.725,19.877,19.877,0,0,0,2.618.6,32.337,32.337,0,0,0,9.938-.119c2.043-.381,15.711-3.987,15.711-3.987l.119-10.236s-5.663,1.049-7.32,1.428a5.191,5.191,0,0,1-3.095.18c-1.713-.63-1.878-2.008-2.083-3.929-.708-6.631.05-18.587.05-18.587l10.2-2.091.4-4.792,12.2,35.885,21.067-4.4,17.5-47.311Z" transform="translate(-296.542 -33.066)" fill="#fff" fill-rule="evenodd"/>
    <path id="Path_9" data-name="Path 9" d="M218.144,141.954a41.692,41.692,0,0,0-1.785,5.713,22.233,22.233,0,0,0-.357,2.261,48.276,48.276,0,0,0,.06,6.725,25.255,25.255,0,0,0,1.131,3.571,15.209,15.209,0,0,0,9.819,8.927c3.71,1.23,9.272.878,12.795-.062,1.726-.46,15.88-3.524,18.746-4.163l.179-10.3-10,2.084c-1.392.293-3.45.641-4.7-.12-2.041-1.24-2.176-3.644-2.38-5.713a80.85,80.85,0,0,1,.357-9.046c.461-3.158,1.171-6.153,3.571-7.617,1.063-.648,13.2-3.168,13.2-3.168l.372-9.865s-23.568,5.2-25.768,5.892c-7.385,2.324-12.025,7.521-15.235,14.878" transform="translate(-162.376 -91.136)" fill="#fff" fill-rule="evenodd"/>
    <path id="Path_10" data-name="Path 10" d="M52.674,187.334c-.174-.941-.247-1.663-.476-2.559a25.707,25.707,0,0,0-1.488-4.285,10.97,10.97,0,0,0-1.785-2.678,10.632,10.632,0,0,0-2.283-1.842,14.785,14.785,0,0,0-2.24-1.193,15.707,15.707,0,0,0-5.7-.789,20.782,20.782,0,0,0-4,.312c-2.3.355-32.433,6.9-32.433,6.9S-.152,236.961.007,237.263c.748-.01,21.567-4.355,22.554-4.761.115-.6.685-12.773.774-13.033,1.433-.011,9.98-.84,12.378-1.726a24.55,24.55,0,0,0,12.259-9.819,38.77,38.77,0,0,0,2.916-6.07,31.455,31.455,0,0,0,2.142-8.629c.033-.674,0-1.058,0-1.488a25.473,25.473,0,0,0-.357-4.4m-22.376.6c-.049.928-.839,19.219-.952,19.7a7.442,7.442,0,0,1-.714,2.559c-.851,1.181-2.674,1.546-4.7,1.547,0-1.18,1.19-25.848,1.309-27.732,1.181-.374,3.777-1.273,4.642-.119.634.845.485,2.738.417,4.047" transform="translate(0 -130.847)" fill="#fff" fill-rule="evenodd"/>
    <path id="Path_11" data-name="Path 11" d="M271.38,284.533a45.681,45.681,0,0,1-71.5,16.058l-10.4,2.335a54.563,54.563,0,0,0,92.255-20.72Z" transform="translate(-142.502 -212.23)" fill="#0892F8"/>
    <path id="Path_12" data-name="Path 12" d="M151.534,36.464a45.717,45.717,0,0,1,65.251-21.153l9.471-4.363a54.568,54.568,0,0,0-84.944,27.574Z" transform="translate(-106.272)" fill="#0892F8"/>
  </g>
</svg>
